<?xml version="1.0" standalone="no"?>
<!DOCTYPE svg PUBLIC "-//W3C//DTD SVG 20010904//EN"
 "http://www.w3.org/TR/2001/REC-SVG-20010904/DTD/svg10.dtd">
<svg version="1.0" xmlns="http://www.w3.org/2000/svg"
 width="377.000000pt" height="377.000000pt" viewBox="0 0 377.000000 377.000000"
 preserveAspectRatio="xMidYMid meet">

<g transform="translate(0.000000,377.000000) scale(0.100000,-0.100000)"
fill="#000000" stroke="none">
<path d="M1680 3759 c-646 -73 -1207 -470 -1490 -1054 -345 -711 -210 -1554
339 -2129 101 -106 305 -266 401 -316 41 -21 20 -5 -75 57 -668 439 -982 1251
-784 2028 65 254 193 512 352 710 90 112 265 278 377 357 173 123 398 227 605
281 178 47 286 60 480 60 522 0 984 -196 1345 -569 157 -162 250 -297 346
-499 334 -707 201 -1535 -340 -2104 -178 -187 -449 -363 -711 -460 -44 -16
-74 -30 -67 -30 23 -1 216 79 311 130 356 190 635 481 811 844 454 936 63
2061 -875 2515 -316 153 -683 217 -1025 179z"/>
<path d="M1669 3475 c-522 -71 -982 -403 -1221 -879 -61 -121 -119 -295 -144
-431 -26 -139 -26 -421 0 -560 115 -618 590 -1123 1194 -1269 157 -38 276 -49
446 -43 227 9 415 54 614 148 468 220 803 654 898 1164 28 150 26 442 -5 585
-47 220 -128 414 -252 600 -85 128 -291 334 -419 419 -340 226 -726 318 -1111
266z m434 -588 c345 -93 563 -349 632 -745 21 -115 21 -369 1 -482 -72 -405
-304 -670 -675 -773 -69 -19 -109 -21 -444 -25 -203 -2 -379 -1 -393 2 -16 4
-26 17 -34 44 -8 26 -10 291 -8 868 3 812 3 832 23 854 19 21 20 21 390 18
l370 -3 78 -28 c165 -58 274 -159 347 -320 60 -134 88 -335 71 -506 -15 -138
-34 -208 -87 -320 -75 -154 -204 -266 -364 -316 -42 -14 -104 -19 -262 -22
-114 -3 -218 -3 -231 1 -46 11 -47 23 -47 627 l0 570 25 24 c29 30 49 31 75 5
20 -20 20 -33 20 -565 l0 -545 158 0 c110 0 176 5 217 15 171 44 310 202 362
410 24 99 24 342 0 448 -37 157 -125 287 -235 345 -107 57 -144 62 -484 62
l-308 0 0 -775 0 -775 309 0 c225 0 329 4 383 14 250 48 441 198 551 432 137
293 124 733 -29 1010 -73 133 -171 225 -307 289 -141 67 -152 68 -588 74 -429
6 -429 6 -429 62 0 62 -7 61 424 57 386 -4 392 -5 489 -31z"/>
<path d="M960 244 c0 -14 323 -155 352 -153 7 0 -23 14 -67 30 -44 17 -126 52
-182 79 -57 27 -103 47 -103 44z"/>
<path d="M1380 70 c30 -11 64 -19 75 -19 11 0 -9 9 -45 19 -82 24 -103 24 -30
0z"/>
<path d="M2355 70 c-33 -10 -51 -18 -40 -19 11 0 45 8 75 19 71 23 44 23 -35
0z"/>
<path d="M1481 45 c3 -2 47 -11 99 -20 135 -22 355 -30 480 -16 123 13 233 31
227 37 -2 3 -49 -3 -103 -13 -137 -23 -461 -24 -596 0 -106 18 -114 19 -107
12z"/>
</g>
</svg>
